<?xml version="1.0" encoding="UTF-8" standalone="no"?>
<!-- Created with Inkscape (http://www.inkscape.org/) -->

<svg
   xmlns:dc="http://purl.org/dc/elements/1.1/"
   xmlns:cc="http://creativecommons.org/ns#"
   xmlns:rdf="http://www.w3.org/1999/02/22-rdf-syntax-ns#"
   xmlns:svg="http://www.w3.org/2000/svg"
   xmlns="http://www.w3.org/2000/svg"
   xmlns:sodipodi="http://sodipodi.sourceforge.net/DTD/sodipodi-0.dtd"
   xmlns:inkscape="http://www.inkscape.org/namespaces/inkscape"
   width="3060"
   height="1840"
   viewBox="0 0 809.62498 486.83334"
   version="1.1"
   id="svg8"
   inkscape:version="0.92.4 5da689c313, 2019-01-14"
   sodipodi:docname="snakypy_dotfyles_pure.svg"
   inkscape:export-filename="/home/wc4nin/github/snakypy/snakypy-static/snakypy-dotfyles/logo/png/snakypy_dotfyles_pure.png"
   inkscape:export-xdpi="31.481749"
   inkscape:export-ydpi="31.481749">
  <defs
     id="defs2" />
  <sodipodi:namedview
     id="base"
     pagecolor="#ffffff"
     bordercolor="#666666"
     borderopacity="1.0"
     inkscape:pageopacity="0.0"
     inkscape:pageshadow="2"
     inkscape:zoom="0.49497475"
     inkscape:cx="1759.6068"
     inkscape:cy="963.97789"
     inkscape:document-units="mm"
     inkscape:current-layer="layer1"
     showgrid="false"
     units="px"
     inkscape:window-width="1366"
     inkscape:window-height="690"
     inkscape:window-x="0"
     inkscape:window-y="25"
     inkscape:window-maximized="1" />
  <metadata
     id="metadata5">
    <rdf:RDF>
      <cc:Work
         rdf:about="">
        <dc:format>image/svg+xml</dc:format>
        <dc:type
           rdf:resource="http://purl.org/dc/dcmitype/StillImage" />
        <dc:title />
      </cc:Work>
    </rdf:RDF>
  </metadata>
  <g
     inkscape:groupmode="layer"
     id="layer2"
     inkscape:label="background"
     sodipodi:insensitive="true" />
  <g
     inkscape:label="Camada 1"
     inkscape:groupmode="layer"
     id="layer1"
     transform="translate(0,189.83338)"
     style="display:inline">
    <rect
       style="display:none;fill:#000000;fill-opacity:1;stroke:#000000;stroke-width:0.094579;stroke-opacity:1"
       id="rect4552-3-6"
       width="20.580719"
       height="20.202744"
       x="361.04333"
       y="377.53134"
       transform="rotate(-44.750369)" />
    <rect
       style="display:none;fill:#ffef34;fill-opacity:1;stroke:#ffffff;stroke-width:0.04306389;stroke-opacity:1"
       id="rect4552-3-6-9"
       width="9.3696909"
       height="9.1998892"
       x="372.17209"
       y="388.19205"
       transform="matrix(0.70010664,-0.7140383,0.69386069,0.72010926,0,0)"
       inkscape:transform-center-x="-0.8018086"
       inkscape:transform-center-y="0.40090428" />
    <rect
       style="display:none;fill:#fff8f8;fill-opacity:1;stroke:none;stroke-width:7.52235889;stroke-linecap:round;stroke-linejoin:bevel;stroke-miterlimit:4;stroke-dasharray:none;stroke-opacity:1"
       id="rect991"
       width="804.18988"
       height="476.56311"
       x="1.4202415"
       y="-183.77768" />
    <path
       style="fill:#000000;fill-opacity:1;stroke:#000000;stroke-width:0.26458332px;stroke-linecap:butt;stroke-linejoin:miter;stroke-opacity:1"
       d="m 312.04713,-113.80868 c 0,0 -25.66652,39.990449 -13.36348,141.385566 -88.31107,-33.8534664 -104.53233,76.501114 1.60362,68.153742 -97.79414,-10.07743 -37.17833,-114.790904 10.69079,-39.555902 -0.60097,-56.28316138 0.67619,-113.322273 1.06907,-169.983406 z"
       id="path3745"
       inkscape:connector-curvature="0"
       sodipodi:nodetypes="ccccc" />
    <rect
       style="fill:#000000;fill-opacity:1;stroke:#000000;stroke-width:0.26499999;stroke-linecap:square;stroke-linejoin:round;stroke-miterlimit:4;stroke-dasharray:none;stroke-opacity:1"
       id="rect4552"
       width="55.184521"
       height="58.964287"
       x="316.56992"
       y="37.337799" />
    <rect
       style="fill:#000000;fill-opacity:1;stroke:#000000;stroke-width:0.094579;stroke-opacity:1"
       id="rect4552-3"
       width="20.580719"
       height="20.202744"
       x="209.08823"
       y="75.989937" />
    <path
       style="fill:#000000;fill-opacity:1;stroke:#000000;stroke-width:0.34337085px;stroke-linecap:butt;stroke-linejoin:miter;stroke-opacity:1"
       d="m 424.07541,-27.462556 c -12.91703,55.770241 -10.39458,159.916266 -9.90318,167.310726 9.54002,-46.633312 9.5913,-111.714615 22.28877,-164.697317 25.05638,-17.58509 66.9944,-28.828975 97.20925,-39.596661 -31.442,6.810584 -76.53718,17.816302 -109.59484,36.983252 z"
       id="path4586"
       inkscape:connector-curvature="0"
       sodipodi:nodetypes="ccccc" />
    <rect
       style="fill:#ffef34;fill-opacity:1;stroke:none;stroke-width:0.13346921;stroke-opacity:1"
       id="rect4552-5"
       width="29.681557"
       height="27.896965"
       x="328.95227"
       y="53.281891" />
    <path
       style="fill:#000000;fill-opacity:1;stroke:#000000;stroke-width:0.26499999;stroke-linecap:round;stroke-linejoin:bevel;stroke-miterlimit:4;stroke-dasharray:none;stroke-opacity:1"
       d="m 468.6184,96.356588 6.61956,0.003 c -1.966,-39.79115 -0.61052,-54.354275 0.47646,-82.224138 -10.63845,25.788143 -7.58581,68.409364 -7.09602,82.221128 z"
       id="path4618"
       inkscape:connector-curvature="0"
       sodipodi:nodetypes="ccccc" />
    <path
       style="fill:#000000;fill-opacity:1;stroke:#000000;stroke-width:0.40215456;stroke-linecap:round;stroke-linejoin:bevel;stroke-miterlimit:4;stroke-dasharray:none;stroke-opacity:1"
       d="m 492.94157,96.290108 8.50083,-0.0105 c 0.82187,-71.110766 3.81439,-96.10692938 7.56199,-145.625893 -15.86812,44.6970736 -15.52958,120.975881 -16.06282,145.636413 z"
       id="path4618-3"
       inkscape:connector-curvature="0"
       sodipodi:nodetypes="cccc" />
    <path
       style="display:inline;fill:#000000;fill-opacity:1;stroke:#000000;stroke-width:0.99999994px;stroke-linecap:butt;stroke-linejoin:miter;stroke-opacity:1"
       d="m 1988.4727,789.69922 c -166.7129,-0.62297 7.7385,465.28258 161.1289,221.19338 7.2003,-11.45789 5.745,-35.94539 0.031,-43.56448 -63.1967,131.16158 -179.0622,73.20218 -184.5918,-43.52148 5.6947,-38.65232 94.636,-50.65165 174.5606,-62.91406 -67.231,-50.84009 -116.5282,-71.06407 -151.1289,-71.19336 z m 10.4961,29.89844 c 21.7925,-0.3391 50.1918,9.67877 80.0761,27.35156 -73.1669,10.34676 -76.5541,10.16355 -119.2656,39.3457 -8.1315,-46.31783 9.3256,-66.23258 39.1895,-66.69726 z"
       id="path4650"
       inkscape:connector-curvature="0"
       transform="matrix(0.26458333,0,0,0.26458333,0,-189.83338)" />
    <rect
       style="fill:#ffef34;fill-opacity:1;stroke:#ffffff;stroke-width:0.04111165;stroke-opacity:1"
       id="rect4552-3-62"
       width="9.200407"
       height="8.5389481"
       x="214.80469"
       y="81.832809" />
    <path
       style="fill:#000000;fill-opacity:1;stroke:#000000;stroke-width:0.26458332px;stroke-linecap:butt;stroke-linejoin:miter;stroke-opacity:1"
       d="m 611.53708,-9.0714257 c -0.84636,1.848615 -2.49453,3.5635953 -4.27633,4.8108533 -10.55332,-23.0850446 -39.79191,-6.6556236 -24.05425,23.5197144 35.80726,55.046274 -24.66112,108.887038 -55.81904,101.187238 40.48022,-19.67697 79.98029,-49.585404 48.33548,-100.118168 -14.88148,-29.5133797 4.31398,-46.638604 27.79604,-41.694034 6.31853,1.401798 9.21415,10.103332 8.0181,12.2943963 z"
       id="path4684"
       inkscape:connector-curvature="0"
       sodipodi:nodetypes="ccccccc" />
    <path
       style="display:inline;fill:#000000;fill-opacity:1;stroke:#000000;stroke-width:0.29529697px;stroke-linecap:butt;stroke-linejoin:miter;stroke-opacity:1"
       d="m 383.46016,43.24307 c -7.9785,3.30304 -16.31155,6.69386 -24.82635,10.038819 -9.92899,4.861765 -18.09635,13.8728 -18.09635,13.8728 L 384.75492,49.65476 c 3.20151,19.891589 4.69048,31.909724 6.71657,46.698638 l 9.45423,-0.0174 -7.65273,-48.94634 c 36.83582,-16.733361 58.03827,-0.0023 76.71891,25.109901 -12.61557,-37.848322 -42.64818,-46.66921 -77.94124,-31.782142 -6.03336,-25.738773 -9.72621,-73.609653 -12.2763,-100.047533 -8.12792,33.797159 2.89891,90.552693 3.6858,102.573163 z"
       id="path4584"
       inkscape:connector-curvature="0"
       sodipodi:nodetypes="cccccccccccc" />
  </g>
</svg>
