<?xml version="1.0" encoding="UTF-8" standalone="no"?>
<!-- Created with Inkscape (http://www.inkscape.org/) -->

<svg
   xmlns:dc="http://purl.org/dc/elements/1.1/"
   xmlns:cc="http://creativecommons.org/ns#"
   xmlns:rdf="http://www.w3.org/1999/02/22-rdf-syntax-ns#"
   xmlns:svg="http://www.w3.org/2000/svg"
   xmlns="http://www.w3.org/2000/svg"
   xmlns:sodipodi="http://sodipodi.sourceforge.net/DTD/sodipodi-0.dtd"
   xmlns:inkscape="http://www.inkscape.org/namespaces/inkscape"
   width="2560"
   height="1440"
   viewBox="0 0 677.33333 381.00002"
   version="1.1"
   id="svg8"
   inkscape:version="0.92.4 5da689c313, 2019-01-14"
   sodipodi:docname="zshpower.svg"
   inkscape:export-filename="/home/wc4nin/github/snakypy/snakypy-static/zshpower/logo/png/zshpower.png"
   inkscape:export-xdpi="30"
   inkscape:export-ydpi="30">
  <defs
     id="defs2" />
  <sodipodi:namedview
     id="base"
     pagecolor="#ffffff"
     bordercolor="#666666"
     borderopacity="1.0"
     inkscape:pageopacity="0.0"
     inkscape:pageshadow="2"
     inkscape:zoom="0.7"
     inkscape:cx="2045.8323"
     inkscape:cy="1087.4802"
     inkscape:document-units="mm"
     inkscape:current-layer="layer1"
     showgrid="false"
     units="px"
     inkscape:window-width="1366"
     inkscape:window-height="690"
     inkscape:window-x="0"
     inkscape:window-y="25"
     inkscape:window-maximized="1" />
  <metadata
     id="metadata5">
    <rdf:RDF>
      <cc:Work
         rdf:about="">
        <dc:format>image/svg+xml</dc:format>
        <dc:type
           rdf:resource="http://purl.org/dc/dcmitype/StillImage" />
        <dc:title></dc:title>
      </cc:Work>
    </rdf:RDF>
  </metadata>
  <g
     inkscape:label="Camada 1"
     inkscape:groupmode="layer"
     id="layer1"
     transform="translate(0,84.000017)">
    <rect
       style="display:inline;opacity:1;fill:#ffffff;fill-opacity:1;fill-rule:nonzero;stroke:#3c3e46;stroke-width:4.94500017;stroke-linecap:round;stroke-linejoin:round;stroke-miterlimit:4;stroke-dasharray:none;stroke-opacity:1"
       id="rect6253"
       width="666.79419"
       height="291.91104"
       x="5.4515128"
       y="-41.430939"
       inkscape:export-xdpi="507"
       inkscape:export-ydpi="507" />
    <rect
       style="display:inline;opacity:1;fill:#3c3e46;fill-opacity:1;fill-rule:nonzero;stroke:#3c3e46;stroke-width:4.87776709;stroke-linecap:round;stroke-linejoin:miter;stroke-miterlimit:4;stroke-dasharray:none;stroke-opacity:1"
       id="rect6253-6"
       width="660.43207"
       height="287.06104"
       x="9.8399239"
       y="-40.570469"
       inkscape:export-xdpi="507"
       inkscape:export-ydpi="507" />
    <path
       style="fill:#f5dc2f;fill-opacity:1;stroke:#ffffff;stroke-width:3.34985352;stroke-linecap:butt;stroke-linejoin:miter;stroke-miterlimit:4;stroke-dasharray:none;stroke-opacity:1"
       d="M 54.847264,157.58721 196.00499,64.205228 149.70727,65.294232 203.55353,13.022113 H 135.61666 L 86.299517,78.906764 147.69433,77.273265 Z"
       id="path864"
       inkscape:connector-curvature="0"
       sodipodi:nodetypes="cccccccc" />
    <path
       style="fill:#20cdcf;fill-opacity:1;stroke:#fbfbfb;stroke-width:3.34985352;stroke-linecap:butt;stroke-linejoin:miter;stroke-miterlimit:4;stroke-dasharray:none;stroke-opacity:1"
       d="M 86.541679,160.92892 177.50126,98.83473 v 62.09419 z"
       id="path866"
       inkscape:connector-curvature="0" />
    <path
       style="fill:#e746d3;fill-opacity:1;stroke:#fbfbfb;stroke-width:3.34985352;stroke-linecap:butt;stroke-linejoin:miter;stroke-miterlimit:4;stroke-dasharray:none;stroke-opacity:1"
       d="m 192.53036,98.87211 c 7.39965,-45.348435 32.27746,-38.021521 55.18942,-36.619215 -11.71161,2.83249 -21.83054,6.931662 -24.56819,16.901167 64.84506,1.537416 44.59937,102.061698 -39.52276,73.640818 0,0 7.31279,-18.73377 22.00951,-12.37029 50.9278,22.05108 54.80966,-64.802984 -13.10798,-41.55248 z"
       id="path868"
       inkscape:connector-curvature="0"
       sodipodi:nodetypes="ccccsc" />
    <path
       style="fill:#7ed728;fill-opacity:1;stroke:#fbfbfb;stroke-width:3.34985352;stroke-linecap:butt;stroke-linejoin:miter;stroke-miterlimit:4;stroke-dasharray:none;stroke-opacity:1"
       d="m 265.23982,157.43746 h 19.63829 l -4.17456,-87.076482 c -0.17237,-7.801417 -9.15224,-14.497366 -9.00928,-6.206027 z"
       id="path870"
       inkscape:connector-curvature="0"
       sodipodi:nodetypes="ccccc" />
    <path
       style="fill:#7ed728;fill-opacity:1;stroke:#fbfbfb;stroke-width:3.34985352;stroke-linecap:butt;stroke-linejoin:miter;stroke-miterlimit:4;stroke-dasharray:none;stroke-opacity:1"
       d="m 303.00576,155.90926 h 22.15603 l -20.14185,-106.974595 -4.5319,47.374462 -11.02182,7.596193 0.89015,15.14153 14.24134,-8.19549 z"
       id="path872"
       inkscape:connector-curvature="0"
       sodipodi:nodetypes="cccccccc" />
    <path
       style="fill:#e73d4b;fill-opacity:1;stroke:#fbfbfb;stroke-width:3.34944773;stroke-linecap:butt;stroke-linejoin:miter;stroke-miterlimit:4;stroke-dasharray:none;stroke-opacity:1"
       d="m 322.69007,53.365094 c -2.64161,-0.0036 -5.35587,0.09072 -8.14256,0.290071 5.81566,34.699483 12.89006,69.144075 18.70572,103.843565 3.79796,-15.60877 6.33719,-30.96266 10.13518,-46.57141 73.1267,36.52933 61.19139,-57.452543 -20.69834,-57.562226 z m 24.96289,24.667188 c 24.44108,3.341863 39.18483,37.730718 -2.51762,17.32 1.1953,-8.294646 1.32231,-10.646266 2.51762,-17.32 z"
       id="path874"
       inkscape:connector-curvature="0"
       sodipodi:nodetypes="cccccccc" />
    <path
       style="fill:#000000;fill-opacity:1;stroke:#fbfbfb;stroke-width:3.34985352;stroke-linecap:round;stroke-linejoin:bevel;stroke-miterlimit:4;stroke-dasharray:none;stroke-opacity:1"
       d="m 417.44152,97.960104 a 25.992438,28.816175 0 0 0 -25.99228,28.815866 25.992438,28.816175 0 0 0 25.99228,28.81632 25.992438,28.816175 0 0 0 25.99279,-28.81632 25.992438,28.816175 0 0 0 -25.99279,-28.815866 z m 0.25179,14.446996 a 12.987968,13.859437 0 0 1 12.98806,13.85938 12.987968,13.859437 0 0 1 -12.98806,13.85939 12.987968,13.859437 0 0 1 -12.98807,-13.85939 12.987968,13.859437 0 0 1 12.98807,-13.85938 z"
       id="path876"
       inkscape:connector-curvature="0" />
    <path
       style="fill:#3987db;fill-opacity:1;stroke:#fbfbfb;stroke-width:3.34985352;stroke-linecap:butt;stroke-linejoin:miter;stroke-miterlimit:4;stroke-dasharray:none;stroke-opacity:1"
       d="m 443.98824,100.12109 c 4.61885,20.46704 7.8961,41.54049 27.77274,55.11094 6.32355,-10.6475 8.10126,-14.2134 11.68893,-26.21797 5.86792,12.92452 10.58528,18.78995 21.06868,26.57816 9.71141,-21.62368 7.76647,-43.6047 6.76515,-65.556798 -6.99978,8.541912 -8.79092,18.862468 -12.81819,32.057998 -6.64647,-9.12512 -13.29294,-18.25024 -19.93941,-27.375363 -2.72952,9.223933 -5.77719,18.233983 -8.54545,28.095763 -9.20357,-9.30583 -16.24521,-17.22027 -25.99245,-22.69273 z"
       id="path896"
       inkscape:connector-curvature="0"
       sodipodi:nodetypes="ccccccccc" />
    <path
       style="fill:#7ed728;fill-opacity:1;stroke:#fbfbfb;stroke-width:3.34985352;stroke-linecap:butt;stroke-linejoin:miter;stroke-miterlimit:4;stroke-dasharray:none;stroke-opacity:1"
       d="m 537.33311,93.054129 c -9.73621,-0.103866 -19.26373,9.538071 -19.66981,29.327121 -0.32641,8.61484 6.29014,31.27761 24.92399,32.59835 20.17679,-0.54031 17.74391,-13.14753 18.33734,-20.53167 -21.60103,15.6688 -28.2476,2.34148 -31.15544,-11.34621 l 28.48496,-0.9005 C 557.01416,103.00773 547.06932,93.157995 537.33311,93.054129 Z m 0.56968,9.855801 c 4.32025,0.0502 8.7406,4.43361 7.93807,10.9736 -4.7479,0.19165 -10.32273,0.33965 -15.48409,0.50945 0,-8.19819 3.73404,-11.5274 7.54602,-11.48305 z"
       id="path902"
       inkscape:connector-curvature="0" />
    <path
       style="fill:#e746d3;fill-opacity:1;stroke:#fbfbfb;stroke-width:3.34985352;stroke-linecap:butt;stroke-linejoin:miter;stroke-miterlimit:4;stroke-dasharray:none;stroke-opacity:1"
       d="m 563.21071,88.15868 c 6.30273,21.81943 5.07806,43.63884 2.76951,65.45827 5.11938,-0.1698 10.23877,-0.3396 15.35816,-0.50941 3.8803,-41.5825 10.12869,-42.39802 34.26643,-50.61755 -4.17935,-9.704321 -21.00866,-19.016302 -35.35992,8.15482 0.11587,-5.51626 -1.57969,-18.149553 -4.44552,-22.995524 -4.19622,0.169798 -8.39243,0.339595 -12.58866,0.509394 z"
       id="path911"
       inkscape:connector-curvature="0"
       sodipodi:nodetypes="ccccccc" />
    <text
       xml:space="preserve"
       style="font-style:normal;font-weight:normal;font-size:9.66420937px;line-height:1.25;font-family:sans-serif;letter-spacing:0px;word-spacing:0px;fill:#ffffff;fill-opacity:1;stroke:none;stroke-width:0.24160524"
       x="395.20401"
       y="170.06429"
       id="text918"
       transform="scale(1.00864,0.99143404)"><tspan
         sodipodi:role="line"
         id="tspan916"
         x="395.20401"
         y="170.06429"
         style="fill:#ffffff;fill-opacity:1;stroke-width:0.24160524">Copyright (c) 2020 - All right reserved.</tspan></text>
    <g
       id="g1120"
       transform="matrix(0.9049331,0,0,0.93271087,63.534931,-1.8203412)">
      <circle
         r="3.4017856"
         cy="-33.351208"
         cx="663.34821"
         id="path1040"
         style="fill:#d85a55;fill-opacity:1;stroke:#d85a55;stroke-width:3.66799998;stroke-linecap:round;stroke-linejoin:bevel;stroke-miterlimit:4;stroke-dasharray:none;stroke-opacity:1" />
      <text
         inkscape:export-ydpi="507"
         inkscape:export-xdpi="507"
         transform="scale(1.0323775,0.96863792)"
         id="text924"
         y="-31.8298"
         x="639.55182"
         style="font-style:normal;font-variant:normal;font-weight:normal;font-stretch:normal;font-size:15.03809166px;line-height:1.25;font-family:'DejaVuSansMono Nerd Font';-inkscape-font-specification:'DejaVuSansMono Nerd Font';letter-spacing:0px;word-spacing:0px;display:inline;opacity:1;fill:#3c3e46;fill-opacity:1;stroke:#3c3e46;stroke-width:0.34359792;stroke-miterlimit:4;stroke-dasharray:none;stroke-opacity:1"
         xml:space="preserve"><tspan
           style="font-style:normal;font-variant:normal;font-weight:normal;font-stretch:normal;font-size:10.02539444px;font-family:'DejaVuSansMono Nerd Font';-inkscape-font-specification:'DejaVuSansMono Nerd Font';fill:#3c3e46;fill-opacity:1;stroke:#3c3e46;stroke-width:0.34359792;stroke-miterlimit:4;stroke-dasharray:none;stroke-opacity:1"
           y="-31.8298"
           x="639.55182"
           id="tspan922"
           sodipodi:role="line">x</tspan></text>
    </g>
    <g
       id="g1115"
       transform="matrix(0.94005795,0,0,0.9068558,35.220962,-2.1609672)">
      <path
         sodipodi:nodetypes="cccc"
         inkscape:connector-curvature="0"
         id="path1060"
         d="m 646.22408,-35.417316 3.97193,5.36387 -5.86123,0.766261 z"
         style="fill:#d1d1d1;fill-opacity:1;stroke:none;stroke-width:0.18410385px;stroke-linecap:butt;stroke-linejoin:miter;stroke-opacity:1" />
      <path
         sodipodi:nodetypes="cccc"
         inkscape:connector-curvature="0"
         id="path1060-6"
         d="m 651.96218,-31.253165 -4.02253,-5.321244 5.85367,-0.828712 z"
         style="fill:#d1d1d1;fill-opacity:1;stroke:none;stroke-width:0.18410385px;stroke-linecap:butt;stroke-linejoin:miter;stroke-opacity:1" />
    </g>
    <text
       xml:space="preserve"
       style="font-style:normal;font-variant:normal;font-weight:normal;font-stretch:normal;font-size:26.06586647px;line-height:1.25;font-family:'DejaVuSansMono Nerd Font';-inkscape-font-specification:'DejaVuSansMono Nerd Font';letter-spacing:0px;word-spacing:0px;display:inline;opacity:1;fill:#d1d1d1;fill-opacity:1;stroke:none;stroke-width:0;stroke-miterlimit:4;stroke-dasharray:none;stroke-opacity:1"
       x="1150.4257"
       y="-22.068239"
       id="text928"
       transform="scale(0.54152227,1.8466461)"
       inkscape:export-xdpi="507"
       inkscape:export-ydpi="507"><tspan
         sodipodi:role="line"
         id="tspan926"
         x="1150.4257"
         y="-22.068239"
         style="font-style:normal;font-variant:normal;font-weight:normal;font-stretch:normal;font-family:'DejaVuSansMono Nerd Font';-inkscape-font-specification:'DejaVuSansMono Nerd Font';fill:#d1d1d1;fill-opacity:1;stroke:none;stroke-width:0;stroke-miterlimit:4;stroke-dasharray:none;stroke-opacity:1">_</tspan></text>
  </g>
</svg>
