<?xml version="1.0" encoding="UTF-8" standalone="no"?>
<!-- Created with Inkscape (http://www.inkscape.org/) -->

<svg
   xmlns:dc="http://purl.org/dc/elements/1.1/"
   xmlns:cc="http://creativecommons.org/ns#"
   xmlns:rdf="http://www.w3.org/1999/02/22-rdf-syntax-ns#"
   xmlns:svg="http://www.w3.org/2000/svg"
   xmlns="http://www.w3.org/2000/svg"
   xmlns:sodipodi="http://sodipodi.sourceforge.net/DTD/sodipodi-0.dtd"
   xmlns:inkscape="http://www.inkscape.org/namespaces/inkscape"
   width="3060"
   height="1840"
   viewBox="0 0 809.62498 486.83334"
   version="1.1"
   id="svg8"
   inkscape:version="0.92.4 5da689c313, 2019-01-14"
   sodipodi:docname="snakypy_dotfiles.svg"
   inkscape:export-filename="/home/wc4nin/github/snakypy/snakypy-dotfiles/design/snakypy_dotfiles.svg.png"
   inkscape:export-xdpi="96"
   inkscape:export-ydpi="96">
  <defs
     id="defs2" />
  <sodipodi:namedview
     id="base"
     pagecolor="#ffffff"
     bordercolor="#666666"
     borderopacity="1.0"
     inkscape:pageopacity="0.0"
     inkscape:pageshadow="2"
     inkscape:zoom="0.0875"
     inkscape:cx="263.00991"
     inkscape:cy="725.73308"
     inkscape:document-units="mm"
     inkscape:current-layer="layer2"
     showgrid="false"
     units="px"
     inkscape:window-width="1366"
     inkscape:window-height="690"
     inkscape:window-x="0"
     inkscape:window-y="25"
     inkscape:window-maximized="1" />
  <metadata
     id="metadata5">
    <rdf:RDF>
      <cc:Work
         rdf:about="">
        <dc:format>image/svg+xml</dc:format>
        <dc:type
           rdf:resource="http://purl.org/dc/dcmitype/StillImage" />
        <dc:title></dc:title>
      </cc:Work>
    </rdf:RDF>
  </metadata>
  <g
     inkscape:groupmode="layer"
     id="layer2"
     inkscape:label="background">
    <rect
       style="display:inline;fill:#fff8f8;fill-opacity:1;stroke:none;stroke-width:7.52235889;stroke-linecap:round;stroke-linejoin:bevel;stroke-miterlimit:4;stroke-dasharray:none;stroke-opacity:1"
       id="rect991"
       width="804.18988"
       height="476.56311"
       x="1.4202415"
       y="6.055706" />
  </g>
  <g
     inkscape:label="Camada 1"
     inkscape:groupmode="layer"
     id="layer1"
     transform="translate(0,189.83338)"
     style="display:inline">
    <path
       style="fill:#000000;fill-opacity:1;stroke:#000000;stroke-width:0.26458332px;stroke-linecap:butt;stroke-linejoin:miter;stroke-opacity:1"
       d="m 372.52332,-97.177731 c 0,0 -25.66652,39.990452 -13.36348,141.385569 -88.31107,-33.853466 -104.53233,76.501112 1.60362,68.153742 -97.79414,-10.07743 -37.17833,-114.7909034 10.69079,-39.555902 -0.60097,-56.283161 0.67619,-113.322273 1.06907,-169.983409 z"
       id="path3745"
       inkscape:connector-curvature="0"
       sodipodi:nodetypes="ccccc" />
    <rect
       style="fill:#000000;fill-opacity:1;stroke:#000000;stroke-width:0.26499999;stroke-linecap:square;stroke-linejoin:round;stroke-miterlimit:4;stroke-dasharray:none;stroke-opacity:1"
       id="rect4552"
       width="55.184521"
       height="58.964287"
       x="377.04611"
       y="53.96875" />
    <rect
       style="fill:#000000;fill-opacity:1;stroke:#000000;stroke-width:0.094579;stroke-opacity:1"
       id="rect4552-3"
       width="20.580719"
       height="20.202744"
       x="269.56442"
       y="92.620888" />
    <rect
       style="fill:#000000;fill-opacity:1;stroke:#000000;stroke-width:0.094579;stroke-opacity:1"
       id="rect4552-3-6"
       width="20.580719"
       height="20.202744"
       x="361.04333"
       y="377.53134"
       transform="rotate(-44.750369)" />
    <path
       style="fill:#000000;fill-opacity:1;stroke:#000000;stroke-width:0.34337085px;stroke-linecap:butt;stroke-linejoin:miter;stroke-opacity:1"
       d="m 484.5516,-10.831604 c -12.91703,55.770241 -10.39458,159.916264 -9.90318,167.310724 9.54002,-46.63331 9.5913,-111.714613 22.28877,-164.697315 25.05638,-17.58509 66.9944,-28.828975 97.20925,-39.596661 -31.442,6.810584 -76.53718,17.816302 -109.59484,36.983252 z"
       id="path4586"
       inkscape:connector-curvature="0"
       sodipodi:nodetypes="ccccc" />
    <rect
       style="fill:#ffef34;fill-opacity:1;stroke:none;stroke-width:0.13346921;stroke-opacity:1"
       id="rect4552-5"
       width="29.681557"
       height="27.896965"
       x="389.42847"
       y="69.912842" />
    <path
       style="fill:#000000;fill-opacity:1;stroke:#000000;stroke-width:0.26499999;stroke-linecap:round;stroke-linejoin:bevel;stroke-miterlimit:4;stroke-dasharray:none;stroke-opacity:1"
       d="m 529.09459,112.98754 6.61956,0.003 c -1.966,-39.79115 -0.61052,-54.354275 0.47646,-82.224138 -10.63845,25.788143 -7.58581,68.409364 -7.09602,82.221128 z"
       id="path4618"
       inkscape:connector-curvature="0"
       sodipodi:nodetypes="ccccc" />
    <path
       style="fill:#000000;fill-opacity:1;stroke:#000000;stroke-width:0.40215456;stroke-linecap:round;stroke-linejoin:bevel;stroke-miterlimit:4;stroke-dasharray:none;stroke-opacity:1"
       d="m 553.41776,112.92106 8.50083,-0.0105 c 0.82187,-71.110766 3.81439,-96.106929 7.56199,-145.625893 C 553.61246,11.981741 553.951,88.260548 553.41776,112.92108 Z"
       id="path4618-3"
       inkscape:connector-curvature="0"
       sodipodi:nodetypes="cccc" />
    <path
       style="display:inline;fill:#000000;fill-opacity:1;stroke:#000000;stroke-width:0.26458332px;stroke-linecap:butt;stroke-linejoin:miter;stroke-opacity:1"
       d="m 580.39338,71.221536 c 1.50673,-10.22676 25.03907,-13.40157 46.18579,-16.646 -103.495,-78.262919 -46.36191,117.673234 2.64583,39.687502 1.90509,-3.03156 1.51978,-9.51078 0.008,-11.526662 -16.7208,34.703154 -47.37647,19.368284 -48.8395,-11.51484 z"
       id="path4650"
       inkscape:connector-curvature="0"
       sodipodi:nodetypes="ccsccc" />
    <rect
       style="fill:#ffef34;fill-opacity:1;stroke:#ffffff;stroke-width:0.04111165;stroke-opacity:1"
       id="rect4552-3-62"
       width="9.200407"
       height="8.5389481"
       x="275.28088"
       y="98.46376" />
    <rect
       style="fill:#ffef34;fill-opacity:1;stroke:#ffffff;stroke-width:0.04306389;stroke-opacity:1"
       id="rect4552-3-6-9"
       width="9.3696909"
       height="9.1998892"
       x="372.17209"
       y="388.19205"
       transform="matrix(0.70010664,-0.7140383,0.69386069,0.72010926,0,0)"
       inkscape:transform-center-x="-0.8018086"
       inkscape:transform-center-y="0.40090428" />
    <path
       style="fill:#ffffff;fill-opacity:1;stroke:#ffffff;stroke-width:0.26458332px;stroke-linecap:butt;stroke-linejoin:miter;stroke-opacity:1"
       d="m 579.00097,61.296456 c 11.30076,-7.72111 12.19687,-7.6725 31.55563,-10.41008 -18.74224,-11.083672 -35.27708,-10.78763 -31.55563,10.41008 z"
       id="path4682"
       inkscape:connector-curvature="0"
       sodipodi:nodetypes="ccc" />
    <path
       style="fill:#000000;fill-opacity:1;stroke:#000000;stroke-width:0.26458332px;stroke-linecap:butt;stroke-linejoin:miter;stroke-opacity:1"
       d="m 672.01327,7.5595267 c -0.84636,1.848615 -2.49453,3.5635953 -4.27633,4.8108533 -10.55332,-23.085045 -39.79191,-6.6556233 -24.05425,23.519714 35.80726,55.046274 -24.66112,108.887036 -55.81904,101.187236 40.48022,-19.67697 79.98029,-49.585402 48.33548,-100.118166 -14.88148,-29.5133793 4.31398,-46.638604 27.79604,-41.6940334 6.31853,1.401798 9.21415,10.103332 8.0181,12.2943961 z"
       id="path4684"
       inkscape:connector-curvature="0"
       sodipodi:nodetypes="ccccccc" />
    <path
       style="fill:#000000;fill-opacity:1;stroke:none;stroke-width:2.5150001;stroke-linecap:butt;stroke-linejoin:miter;stroke-miterlimit:4;stroke-dasharray:none;stroke-opacity:1"
       d="M 131.5489,-45.046043 V 112.99911 l 15.75327,-0.0519 103.86033,-0.19311 10.15324,-0.0546 c 0.1013,-39.240923 0.0522,-94.017645 0.15353,-133.258574 -11.64977,-11.741391 -23.03363,-23.59864 -34.68342,-35.34002 l -95.17587,0.630084 z"
       id="path4697"
       inkscape:connector-curvature="0"
       sodipodi:nodetypes="ccccccccc" />
    <path
       style="display:inline;fill:#646464;fill-opacity:1;stroke:#646464;stroke-width:1.61500001;stroke-linecap:butt;stroke-linejoin:bevel;stroke-miterlimit:4;stroke-dasharray:none;stroke-opacity:1"
       d="m 261.46927,-20.559086 c -7.9125,-0.01882 -27.37347,0.271356 -35.28597,0.252538 l 0.15905,-11.014723 c 0.14783,-8.19261 0.29567,-16.385219 0.4435,-24.577827 11.56114,11.780003 23.12229,23.560007 34.68342,35.340012 z"
       id="path4699"
       inkscape:connector-curvature="0"
       sodipodi:nodetypes="cccccc" />
    <rect
       style="display:inline;fill:#ffef34;fill-opacity:1;stroke:none;stroke-width:0.19520302;stroke-opacity:1"
       id="rect4552-5-1"
       width="41.379684"
       height="42.802326"
       x="172.26131"
       y="11.610841" />
    <g
       id="g968"
       transform="translate(-9.0714287,-16.630952)">
      <path
         sodipodi:nodetypes="cccc"
         inkscape:connector-curvature="0"
         id="path847"
         d="m 646.54452,193.3944 c -1.43591,-0.23988 -3.08149,-0.91179 -4.7514,-1.63383 1.21015,1.10715 2.8367,1.914 4.63845,2.5945 0.23348,-0.0102 0.43683,-0.81633 0.11295,-0.96067 z"
         style="display:inline;fill:#fcd441;fill-opacity:1;stroke:none;stroke-width:0.25576332px;stroke-linecap:butt;stroke-linejoin:miter;stroke-opacity:1" />
      <path
         id="path6097-1"
         d="m 665.56395,156.14564 c -4.74227,0.7982 -9.47223,1.69031 -13.51064,7.88575 2.6897,2.04933 3.26655,5.03787 3.84866,8.02408 0,0 -21.0241,-4.26 -29.14494,17.94879 -2.84872,7.79061 7.55282,31.66413 15.99312,45.10021 4.69701,9.60461 21.67166,10.47702 27.71774,-0.54001 2.26219,-3.69279 18.98913,-43.91256 22.69087,-68.47604 -1.41222,-5.28232 -6.04341,-7.48458 -12.97163,-7.49047 -1.43866,5.75445 -2.1044,11.15625 -5.71579,15.73596 -0.6183,-7.50271 -3.05433,-14.49331 -8.90739,-18.18827 z m -1.03364,37.38856 c 2.66282,4.84345 5.72711,5.83477 5.72711,5.83477 -0.59628,4.47991 -2.7519,9.3149 -4.64531,12.98096 -2.70253,5.5698 -10.70121,9.00005 -16.60038,2.12309 -2.12103,-3.24167 -4.94913,-9.02271 -6.05354,-13.13721 9.44307,2.08284 15.76255,0.41493 21.57212,-7.80161 z"
         style="display:inline;opacity:1;fill:#ffd641;fill-opacity:0.98431373;fill-rule:nonzero;stroke:#306998;stroke-width:1.90488541;stroke-linecap:round;stroke-linejoin:round;stroke-miterlimit:4;stroke-dasharray:none;stroke-opacity:1"
         inkscape:connector-curvature="0" />
      <path
         inkscape:export-ydpi="507.71423"
         inkscape:export-xdpi="507.71423"
         inkscape:transform-center-y="0.019666377"
         inkscape:transform-center-x="-0.055724441"
         sodipodi:nodetypes="cccc"
         inkscape:connector-curvature="0"
         id="path6427-0"
         d="m 664.74825,169.45788 -0.19228,1.88155 c 0.48502,0.16692 1.54818,-0.69072 1.54818,-0.69072 -0.34781,-0.52782 -0.77842,-1.05616 -1.3559,-1.19083 z"
         style="display:inline;opacity:1;fill:#306896;fill-opacity:1;stroke:none;stroke-width:0.25576332px;stroke-linecap:butt;stroke-linejoin:miter;stroke-opacity:1" />
      <path
         inkscape:export-ydpi="507.71423"
         inkscape:export-xdpi="507.71423"
         sodipodi:nodetypes="ccccccccc"
         inkscape:connector-curvature="0"
         id="path4560-7"
         d="m 642.46128,191.3705 c 9.99991,3.65453 14.86072,-2.02576 13.85888,-8.43715 -1.19844,-5.85762 -8.87628,-8.64418 -17.27859,-2.87418 -4.03571,2.75691 -3.70691,8.37528 -2.51981,14.55636 2.35562,13.23858 7.42562,23.48543 10.79914,24.84781 5.58375,2.3174 9.08553,-2.38039 8.27932,-6.86097 -1.2157,-4.2264 -3.2077,-7.31977 -8.45931,-5.65565 -1.35036,-3.58434 -2.43543,-7.52676 -1.45034,-14.37654 -1.04991,-0.43267 -2.17937,-0.76701 -3.22929,-1.19968 z"
         style="display:inline;opacity:1;fill:#306998;fill-opacity:1;stroke:#306998;stroke-width:1.93332934;stroke-linecap:round;stroke-linejoin:round;stroke-miterlimit:4;stroke-dasharray:3.86665853, 1.93332927;stroke-dashoffset:20;stroke-opacity:1" />
      <ellipse
         inkscape:export-ydpi="507.71423"
         inkscape:export-xdpi="507.71423"
         ry="1.4750975"
         rx="1.3999581"
         cy="183.74992"
         cx="649.1275"
         id="path4562-0"
         style="display:inline;opacity:1;fill:#fcd441;fill-opacity:1;fill-rule:evenodd;stroke:none;stroke-width:0.05692153;stroke-miterlimit:4;stroke-dasharray:none;stroke-opacity:1" />
      <path
         inkscape:export-ydpi="507.71423"
         inkscape:export-xdpi="507.71423"
         sodipodi:nodetypes="cscssscc"
         inkscape:connector-curvature="0"
         id="path6088-9"
         d="m 667.44969,212.14295 c -0.52347,-10.54371 0.98996,-16.58944 3.63169,-23.83662 3.43665,-9.42793 12.3792,-15.38691 17.52167,-23.02078 -7.72683,11.87807 -13.74429,22.42894 -13.69697,36.77473 0.0291,8.83471 0.66872,10.58258 -1.72686,17.73118 -5.67677,16.93984 -27.16946,14.71159 -33.23773,3.65864 -0.77499,-1.41157 -1.67902,-5.60245 0.10997,-8.20459 6.04604,15.84988 28.87729,11.48477 27.39823,-3.10256 z"
         style="display:inline;opacity:1;fill:#306998;fill-opacity:1;stroke:#306998;stroke-width:1.93332934;stroke-linecap:round;stroke-linejoin:round;stroke-miterlimit:4;stroke-dasharray:3.86665853, 1.93332927;stroke-dashoffset:0;stroke-opacity:1;paint-order:markers fill stroke" />
      <path
         inkscape:export-ydpi="507.71423"
         inkscape:export-xdpi="507.71423"
         sodipodi:nodetypes="cccc"
         inkscape:connector-curvature="0"
         id="path6086-3"
         d="m 654.93346,189.75639 c 3.05465,4.46296 12.26914,1.74798 9.57604,-3.02169 -4.26634,-6.43265 -5.16501,-11.77273 -3.95968,-13.53649 0.6241,-0.95535 2.141,-2.53467 4.04967,-2.78148"
         style="display:inline;opacity:1;fill:none;stroke:#306998;stroke-width:1.93332934;stroke-linecap:round;stroke-linejoin:round;stroke-miterlimit:4;stroke-dasharray:none;stroke-opacity:1" />
      <path
         inkscape:export-ydpi="507.71423"
         inkscape:export-xdpi="507.71423"
         sodipodi:nodetypes="cc"
         inkscape:connector-curvature="0"
         id="path6092-6"
         d="m 660.67258,172.79893 c 0.0857,-1.45018 0.44111,-3.08162 1.18656,-4.47"
         style="display:inline;opacity:1;fill:none;stroke:#306998;stroke-width:1.93332934;stroke-linecap:round;stroke-linejoin:round;stroke-miterlimit:4;stroke-dasharray:none;stroke-opacity:1" />
      <path
         inkscape:export-ydpi="507.71423"
         inkscape:export-xdpi="507.71423"
         sodipodi:nodetypes="cccc"
         inkscape:connector-curvature="0"
         id="path6427"
         d="m 661.15247,167.6779 1.61304,0.94781 c 0.0706,-0.11522 0.10452,-1.15545 -1.7e-4,-1.73817 -0.60834,0.11915 -1.18743,0.37287 -1.61288,0.79036 z"
         style="display:inline;opacity:1;fill:#306896;fill-opacity:1;stroke:none;stroke-width:0.25576332px;stroke-linecap:butt;stroke-linejoin:miter;stroke-opacity:1" />
      <path
         sodipodi:nodetypes="cccc"
         inkscape:connector-curvature="0"
         id="path847-3"
         d="m 648.47796,205.50499 c 0.13875,1.43088 0.94386,3.51121 1.56001,5.28019 -1.04586,-1.42019 -1.75231,-3.16775 -2.31595,-5.05304 0.005,-0.39917 0.56645,-0.51568 0.75594,-0.22715 z"
         style="display:inline;fill:#ffffff;fill-opacity:1;stroke:none;stroke-width:0.25576332px;stroke-linecap:butt;stroke-linejoin:miter;stroke-opacity:1" />
      <text
         inkscape:export-ydpi="507.71533"
         inkscape:export-xdpi="507.71533"
         transform="scale(0.96747087,1.0336228)"
         id="text6446-5"
         y="159.53831"
         x="709.33356"
         style="font-style:normal;font-weight:normal;font-size:2.82151365px;line-height:1.25;font-family:sans-serif;letter-spacing:0px;word-spacing:0px;display:inline;opacity:1;fill:#000000;fill-opacity:1;stroke:none;stroke-width:0.07053784"
         xml:space="preserve"><tspan
           style="font-size:1.22265613px;fill:#ffffff;fill-opacity:1;stroke:#306998;stroke-width:0.07053784;stroke-opacity:1"
           y="159.53831"
           x="709.33356"
           id="tspan6444-3"
           sodipodi:role="line">Ⓡ</tspan></text>
    </g>
    <text
       xml:space="preserve"
       style="font-style:normal;font-weight:normal;font-size:10.58333302px;line-height:1.25;font-family:sans-serif;letter-spacing:0px;word-spacing:0px;fill:#000000;fill-opacity:1;stroke:none;stroke-width:0.26458332"
       x="488.34525"
       y="185.11899"
       id="text942"><tspan
         sodipodi:role="line"
         id="tspan940"
         x="488.34525"
         y="185.11899"
         style="font-size:22.57777786px;stroke-width:0.26458332">Offered by:</tspan></text>
    <text
       xml:space="preserve"
       style="font-style:normal;font-weight:normal;font-size:10.58333302px;line-height:1.25;font-family:sans-serif;letter-spacing:0px;word-spacing:0px;fill:#000000;fill-opacity:1;stroke:none;stroke-width:0.26458332"
       x="129.33463"
       y="131.05188"
       id="text972"><tspan
         sodipodi:role="line"
         id="tspan970"
         x="129.33463"
         y="131.05188"
         style="font-size:14.11111069px;stroke-width:0.26458332">(c) Copyright 2020 - All right reserved.</tspan></text>
    <path
       style="display:inline;fill:#000000;fill-opacity:1;stroke:#000000;stroke-width:0.29529697px;stroke-linecap:butt;stroke-linejoin:miter;stroke-opacity:1"
       d="m 443.93635,59.874022 c -7.9785,3.30304 -16.31155,6.69386 -24.82635,10.038819 -9.92899,4.861765 -18.09635,13.8728 -18.09635,13.8728 l 44.21746,-17.499929 c 3.20151,19.891589 4.69048,31.909724 6.71657,46.698638 l 9.45423,-0.0174 -7.65273,-48.94634 c 36.83582,-16.733361 56.9692,-7.485851 78.5898,19.497241 -10.52049,-25.73982 -41.9629,-42.713015 -79.81213,-26.169482 -6.03336,-25.738773 -9.72621,-73.609653 -12.2763,-100.047533 -8.12792,33.7971598 2.89891,90.552693 3.6858,102.573163 z"
       id="path4584"
       inkscape:connector-curvature="0"
       sodipodi:nodetypes="cccccccccccc" />
  </g>
</svg>
