<?xml version="1.0" encoding="UTF-8" standalone="no"?>
<!-- Created with Inkscape (http://www.inkscape.org/) -->

<svg
   xmlns:osb="http://www.openswatchbook.org/uri/2009/osb"
   xmlns:dc="http://purl.org/dc/elements/1.1/"
   xmlns:cc="http://creativecommons.org/ns#"
   xmlns:rdf="http://www.w3.org/1999/02/22-rdf-syntax-ns#"
   xmlns:svg="http://www.w3.org/2000/svg"
   xmlns="http://www.w3.org/2000/svg"
   xmlns:sodipodi="http://sodipodi.sourceforge.net/DTD/sodipodi-0.dtd"
   xmlns:inkscape="http://www.inkscape.org/namespaces/inkscape"
   width="210mm"
   height="297mm"
   viewBox="0 0 210 297"
   version="1.1"
   id="svg8"
   inkscape:version="0.92.4 5da689c313, 2019-01-14"
   sodipodi:docname="snakypy_logo.svg">
  <defs
     id="defs2">
    <linearGradient
       id="linearGradient6149"
       osb:paint="solid">
      <stop
         style="stop-color:#ffed08;stop-opacity:1;"
         offset="0"
         id="stop6147" />
    </linearGradient>
    <linearGradient
       id="linearGradient6022"
       osb:paint="solid">
      <stop
         style="stop-color:#2e3436;stop-opacity:1;"
         offset="0"
         id="stop6020" />
    </linearGradient>
  </defs>
  <sodipodi:namedview
     id="base"
     pagecolor="#ffffff"
     bordercolor="#666666"
     borderopacity="1.0"
     inkscape:pageopacity="0.0"
     inkscape:pageshadow="2"
     inkscape:zoom="0.70710678"
     inkscape:cx="325.08404"
     inkscape:cy="361.67637"
     inkscape:document-units="mm"
     inkscape:current-layer="layer13"
     showgrid="false"
     inkscape:window-width="1326"
     inkscape:window-height="704"
     inkscape:window-x="40"
     inkscape:window-y="27"
     inkscape:window-maximized="1"
     showguides="false">
    <inkscape:grid
       type="xygrid"
       id="grid4551" />
  </sodipodi:namedview>
  <metadata
     id="metadata5">
    <rdf:RDF>
      <cc:Work
         rdf:about="">
        <dc:format>image/svg+xml</dc:format>
        <dc:type
           rdf:resource="http://purl.org/dc/dcmitype/StillImage" />
        <dc:title />
      </cc:Work>
    </rdf:RDF>
  </metadata>
  <g
     inkscape:groupmode="layer"
     id="layer12"
     inkscape:label="background_document"
     style="display:inline"
     sodipodi:insensitive="true">
    <rect
       style="opacity:1;fill:#2b2b2b;fill-opacity:1;fill-rule:nonzero;stroke:#fffefc;stroke-width:2.41671085;stroke-linecap:round;stroke-linejoin:round;stroke-miterlimit:4;stroke-dasharray:none;stroke-opacity:1"
       id="rect6368"
       width="204.45824"
       height="293.18781"
       x="3.3811412"
       y="2.2142811" />
  </g>
  <g
     inkscape:groupmode="layer"
     id="layer13"
     inkscape:label="snakypy_background"
     style="display:inline">
    <path
       style="display:inline;opacity:1;fill:#ffd641;fill-opacity:0.98431373;fill-rule:nonzero;stroke:#306998;stroke-width:1.97057557;stroke-linecap:round;stroke-linejoin:round;stroke-miterlimit:4;stroke-dasharray:none;stroke-opacity:1"
       d="m 72.306929,51.490292 c 8.52704,-22.63478 30.602641,-18.29309 30.602641,-18.29309 -0.61123,-3.04348 -1.21692,-6.08935 -4.041151,-8.178 4.240401,-6.31428 9.207021,-7.22348 14.186491,-8.03699 6.14583,3.76584 8.70364,10.8905 9.35286,18.53712 3.79203,-4.66756 4.49114,-10.17289 6.00176,-16.03772 7.27476,0.006 12.13761,2.25044 13.62047,7.63409 -3.8869,25.03463 -21.45049,66.025811 -23.82583,69.789451 -6.34851,11.228337 -24.172211,10.339247 -29.104161,0.55041 -8.86247,-13.6938 -19.78428,-38.025241 -16.79308,-45.965271 z"
       id="path6097-1"
       inkscape:connector-curvature="0"
       sodipodi:nodetypes="sccccccccs"
       inkscape:export-xdpi="507.71423"
       inkscape:export-ydpi="507.71423" />
    <path
       style="display:inline;opacity:1;fill:#ffffff;fill-opacity:1;stroke:#306998;stroke-width:2;stroke-linecap:round;stroke-linejoin:round;stroke-miterlimit:4;stroke-dasharray:none;stroke-dashoffset:20;stroke-opacity:1"
       d="m 89.318449,63.039182 c 9.9154,2.12277 16.550941,0.42288 22.651091,-7.95128 2.79601,4.93636 6.01357,5.94676 6.01357,5.94676 -0.6261,4.56584 -2.88955,9.493481 -4.87767,13.229851 -2.8377,5.67665 -11.23642,9.17272 -17.430661,2.16386 -2.22712,-3.30385 -5.19668,-9.195781 -6.35633,-13.389191 z"
       id="path6347-2"
       inkscape:connector-curvature="0"
       sodipodi:nodetypes="cccccc"
       inkscape:export-xdpi="507.71423"
       inkscape:export-ydpi="507.71423" />
    <path
       style="display:inline;opacity:1;fill:#ffffff;fill-opacity:0.98431373;stroke:none;stroke-width:0.26499999;stroke-linecap:butt;stroke-linejoin:miter;stroke-miterlimit:4;stroke-dasharray:none;stroke-opacity:1"
       d="m 92.185856,201.89759 c 0.74465,2.67231 2.72063,5.87379 3.4072,6.98905 -1.42131,-3.68187 -1.76903,-4.54708 -2.61345,-7.22056 z"
       id="path6650-2"
       inkscape:connector-curvature="0"
       sodipodi:nodetypes="cccc"
       inkscape:export-xdpi="507.71423"
       inkscape:export-ydpi="507.71423" />
    <path
       style="display:inline;opacity:1;fill:#f8d141;fill-opacity:1;stroke:none;stroke-width:0.26458332px;stroke-linecap:butt;stroke-linejoin:miter;stroke-opacity:1"
       d="m 90.949456,189.3232 c -1.23494,-0.26565 -2.59623,-0.65766 -4.04932,-1.14146 1.30902,0.73559 2.67454,1.43264 4.01455,1.92033 z"
       id="path6652-6"
       inkscape:connector-curvature="0"
       sodipodi:nodetypes="cccc"
       inkscape:export-xdpi="507.71423"
       inkscape:export-ydpi="507.71423" />
    <path
       style="display:inline;opacity:1;fill:#ffd641;fill-opacity:0.98431373;fill-rule:nonzero;stroke:#306998;stroke-width:7.44784498;stroke-linecap:round;stroke-linejoin:round;stroke-miterlimit:4;stroke-dasharray:none;stroke-opacity:1"
       d="M 419.22656 572.06836 C 400.40652 575.14304 381.63415 578.58032 365.60742 602.44531 C 376.28168 610.33942 378.5707 621.8506 380.88086 633.35352 C 380.88086 633.35352 297.44694 616.94537 265.21875 702.49414 C 253.91343 732.5037 295.19155 824.46461 328.6875 876.2207 C 347.32794 913.21789 414.69313 916.57845 438.6875 874.14062 C 447.66516 859.91584 514.04764 704.98821 528.73828 610.36914 C 523.13377 590.02149 504.75492 581.5383 477.25977 581.51562 C 471.55034 603.68191 468.90825 624.48969 454.57617 642.13086 C 452.12243 613.23025 442.4549 586.30146 419.22656 572.06836 z M 415.12305 716.08984 C 425.69064 734.74695 437.85156 738.56641 437.85156 738.56641 C 435.4852 755.82312 426.93212 774.44665 419.41797 788.56836 C 408.6928 810.02341 376.94842 823.23823 353.53711 796.74805 C 345.11965 784.26105 333.8966 761.99169 329.51367 746.14258 C 366.9892 754.16565 392.06736 747.74021 415.12305 716.08984 z "
       transform="scale(0.26458333)"
       id="path6097-1-3" />
  </g>
  <g
     inkscape:groupmode="layer"
     id="layer3"
     inkscape:label="snakypy_snake"
     style="display:inline">
    <path
       style="opacity:1;fill:#ffffff;fill-opacity:0.98431373;stroke:none;stroke-width:0.26499999;stroke-linecap:butt;stroke-linejoin:miter;stroke-miterlimit:4;stroke-dasharray:none;stroke-opacity:1"
       d="m 94.320539,67.519852 c 0.74465,2.672311 2.72063,5.873791 3.4072,6.989051 -1.42131,-3.68187 -1.76903,-4.547081 -2.61345,-7.220561 z"
       id="path6650"
       inkscape:connector-curvature="0"
       sodipodi:nodetypes="cccc"
       inkscape:export-xdpi="507.71423"
       inkscape:export-ydpi="507.71423" />
    <path
       style="opacity:1;fill:#f8d141;fill-opacity:1;stroke:none;stroke-width:0.26458332px;stroke-linecap:butt;stroke-linejoin:miter;stroke-opacity:1"
       d="m 93.084139,54.945462 c -1.23494,-0.26565 -2.59623,-0.65766 -4.04932,-1.14146 1.30902,0.73559 2.67454,1.43264 4.01455,1.92033 z"
       id="path6652"
       inkscape:connector-curvature="0"
       sodipodi:nodetypes="cccc"
       inkscape:export-xdpi="507.71423"
       inkscape:export-ydpi="507.71423" />
    <g
       id="g1080">
      <text
         inkscape:export-ydpi="507.71533"
         inkscape:export-xdpi="507.71533"
         transform="scale(0.9819985,1.0183315)"
         id="text6446-5"
         y="25.188753"
         x="136.44699"
         style="font-style:normal;font-weight:normal;font-size:4.28975916px;line-height:1.25;font-family:sans-serif;letter-spacing:0px;word-spacing:0px;display:inline;opacity:1;fill:#000000;fill-opacity:1;stroke:none;stroke-width:0.10724397"
         xml:space="preserve"><tspan
           style="font-size:1.85889566px;fill:#ffffff;fill-opacity:1;stroke:#306998;stroke-width:0.10724397;stroke-opacity:1"
           y="25.188753"
           x="136.44699"
           id="tspan6444-3"
           sodipodi:role="line">Ⓡ</tspan></text>
      <path
         inkscape:export-ydpi="507.71423"
         inkscape:export-xdpi="507.71423"
         sodipodi:nodetypes="ccccccccc"
         inkscape:connector-curvature="0"
         id="path4560-7"
         d="m 88.796659,52.882732 c 10.50009,3.72464 15.604031,-2.0646 14.552081,-8.59897 -1.25838,-5.96999 -9.320261,-8.80998 -18.142851,-2.92931 -4.23757,2.80979 -3.89232,8.53593 -2.64584,14.83556 2.47345,13.49252 7.79704,23.935911 11.33929,25.324421 5.86305,2.36184 9.539991,-2.42605 8.693451,-6.99257 -1.27651,-4.30748 -3.368151,-7.460171 -8.882441,-5.764131 -1.4179,-3.6531 -2.55724,-7.67113 -1.52288,-14.6523 -1.10243,-0.44097 -2.28838,-0.78173 -3.39081,-1.2227 z"
         style="display:inline;opacity:1;fill:#306998;fill-opacity:1;stroke:#306998;stroke-width:2;stroke-linecap:round;stroke-linejoin:round;stroke-miterlimit:4;stroke-dasharray:4.00000015, 2.00000008;stroke-dashoffset:20;stroke-opacity:1" />
      <ellipse
         inkscape:export-ydpi="507.71423"
         inkscape:export-xdpi="507.71423"
         ry="1.5033911"
         rx="1.4699824"
         cy="45.115997"
         cx="95.796326"
         id="path4562-0"
         style="display:inline;opacity:1;fill:#fcd441;fill-opacity:1;fill-rule:evenodd;stroke:none;stroke-width:0.05888448;stroke-miterlimit:4;stroke-dasharray:none;stroke-opacity:1" />
      <path
         inkscape:export-ydpi="507.71423"
         inkscape:export-xdpi="507.71423"
         sodipodi:nodetypes="cscssscc"
         inkscape:connector-curvature="0"
         id="path6088-9"
         d="m 115.03496,74.053633 c -0.54966,-10.745951 1.03947,-16.907641 3.81334,-24.293841 3.60855,-9.60876 12.99839,-15.68205 18.39809,-23.46233 -8.11332,12.10589 -14.43177,22.85914 -14.38208,37.4801 0.0306,9.004171 0.70217,10.785561 -1.81324,18.071281 -5.96071,17.26476 -28.528441,14.99377 -34.900241,3.72882 -0.81375,-1.43865 -1.763,-5.70991 0.11547,-8.36196 6.34846,16.15389 30.321701,11.70504 28.768661,-3.16207 z"
         style="display:inline;opacity:1;fill:#306998;fill-opacity:1;stroke:#306998;stroke-width:2;stroke-linecap:round;stroke-linejoin:round;stroke-miterlimit:4;stroke-dasharray:4.00000015, 2.00000008;stroke-dashoffset:0;stroke-opacity:1;paint-order:markers fill stroke" />
      <path
         inkscape:export-ydpi="507.71423"
         inkscape:export-xdpi="507.71423"
         sodipodi:nodetypes="cccc"
         inkscape:connector-curvature="0"
         id="path6086-3"
         d="m 101.89268,51.237672 c 3.20744,4.54855 12.88283,1.7815 10.05502,-3.07965 -4.47974,-6.55603 -5.42336,-11.99854 -4.15774,-13.79613 0.65532,-0.97367 2.24809,-2.58329 4.25223,-2.83483"
         style="display:inline;opacity:1;fill:none;stroke:#306998;stroke-width:2;stroke-linecap:round;stroke-linejoin:round;stroke-miterlimit:4;stroke-dasharray:none;stroke-opacity:1" />
      <path
         inkscape:export-ydpi="507.71423"
         inkscape:export-xdpi="507.71423"
         sodipodi:nodetypes="cc"
         inkscape:connector-curvature="0"
         id="path6092-6"
         d="m 107.91886,33.954952 c 0.09,-1.478 0.46318,-3.14072 1.24591,-4.55574"
         style="display:inline;opacity:1;fill:none;stroke:#306998;stroke-width:2;stroke-linecap:round;stroke-linejoin:round;stroke-miterlimit:4;stroke-dasharray:none;stroke-opacity:1" />
      <path
         inkscape:export-ydpi="507.71423"
         inkscape:export-xdpi="507.71423"
         sodipodi:nodetypes="cccc"
         inkscape:connector-curvature="0"
         id="path6427"
         d="m 108.42276,28.735692 1.69372,0.96599 c 0.0741,-0.11743 0.10975,-1.1776 -1.7e-4,-1.7715 -0.63877,0.12143 -1.24683,0.38001 -1.69355,0.80551 z"
         style="display:inline;opacity:1;fill:#306896;fill-opacity:1;stroke:none;stroke-width:0.26458332px;stroke-linecap:butt;stroke-linejoin:miter;stroke-opacity:1" />
      <path
         inkscape:export-ydpi="507.71423"
         inkscape:export-xdpi="507.71423"
         inkscape:transform-center-y="0.10116926"
         inkscape:transform-center-x="-0.28485725"
         sodipodi:nodetypes="cccc"
         inkscape:connector-curvature="0"
         id="path6427-0"
         d="m 112.19839,30.549812 -0.20189,1.91764 c 0.50928,0.17013 1.62562,-0.70397 1.62562,-0.70397 -0.36521,-0.53795 -0.81736,-1.07641 -1.42373,-1.21367 z"
         style="display:inline;opacity:1;fill:#306896;fill-opacity:1;stroke:none;stroke-width:0.26458332px;stroke-linecap:butt;stroke-linejoin:miter;stroke-opacity:1" />
    </g>
    <g
       style="display:inline"
       id="g1091">
      <text
         inkscape:export-ydpi="507.71533"
         inkscape:export-xdpi="507.71533"
         transform="scale(0.98199849,1.0183315)"
         id="text6446-5-0"
         y="157.14749"
         x="134.27318"
         style="font-style:normal;font-weight:normal;font-size:4.28975916px;line-height:1.25;font-family:sans-serif;letter-spacing:0px;word-spacing:0px;display:inline;opacity:1;fill:#000000;fill-opacity:1;stroke:none;stroke-width:0.10724397"
         xml:space="preserve"><tspan
           style="font-size:1.85889566px;fill:#ffffff;fill-opacity:1;stroke:#306998;stroke-width:0.10724397;stroke-opacity:1"
           y="157.14749"
           x="134.27318"
           id="tspan6444-3-6"
           sodipodi:role="line">Ⓡ</tspan></text>
      <path
         inkscape:export-ydpi="507.71423"
         inkscape:export-xdpi="507.71423"
         sodipodi:nodetypes="ccccccccc"
         inkscape:connector-curvature="0"
         id="path4560-7-1"
         d="m 86.661976,187.26047 c 10.500091,3.72464 15.604034,-2.0646 14.552084,-8.59897 -1.258382,-5.96999 -9.320264,-8.80998 -18.142854,-2.92931 -4.23757,2.80979 -3.89232,8.53593 -2.64584,14.83556 2.47345,13.49252 7.79704,23.93591 11.33929,25.32442 5.863051,2.36184 9.539994,-2.42605 8.693454,-6.99257 -1.276513,-4.30748 -3.368153,-7.46017 -8.882444,-5.76413 -1.4179,-3.6531 -2.55724,-7.67113 -1.52288,-14.6523 -1.10243,-0.44097 -2.28838,-0.78173 -3.39081,-1.2227 z"
         style="display:inline;opacity:1;fill:#306998;fill-opacity:1;stroke:#306998;stroke-width:2;stroke-linecap:round;stroke-linejoin:round;stroke-miterlimit:4;stroke-dasharray:4.00000019, 2.0000001;stroke-dashoffset:20;stroke-opacity:1" />
      <ellipse
         inkscape:export-ydpi="507.71423"
         inkscape:export-xdpi="507.71423"
         ry="1.5033911"
         rx="1.4699824"
         cy="179.49373"
         cx="93.661644"
         id="path4562-0-8"
         style="display:inline;opacity:1;fill:#fcd441;fill-opacity:1;fill-rule:evenodd;stroke:none;stroke-width:0.05888448;stroke-miterlimit:4;stroke-dasharray:none;stroke-opacity:1" />
      <path
         inkscape:export-ydpi="507.71423"
         inkscape:export-xdpi="507.71423"
         sodipodi:nodetypes="cscssscc"
         inkscape:connector-curvature="0"
         id="path6088-9-7"
         d="m 112.90028,208.43137 c -0.54966,-10.74595 1.03947,-16.90764 3.81334,-24.29384 3.60855,-9.60876 12.99839,-15.68205 18.39809,-23.46233 -8.11332,12.10589 -14.43177,22.85914 -14.38208,37.4801 0.0306,9.00417 0.70217,10.78556 -1.81324,18.07128 -5.96071,17.26476 -28.528444,14.99377 -34.900244,3.72882 -0.81375,-1.43865 -1.763,-5.70991 0.11547,-8.36196 6.34846,16.15389 30.321704,11.70504 28.768664,-3.16207 z"
         style="display:inline;opacity:1;fill:#306998;fill-opacity:1;stroke:#306998;stroke-width:2;stroke-linecap:round;stroke-linejoin:round;stroke-miterlimit:4;stroke-dasharray:4.00000019, 2.0000001;stroke-dashoffset:0;stroke-opacity:1;paint-order:markers fill stroke" />
      <path
         inkscape:export-ydpi="507.71423"
         inkscape:export-xdpi="507.71423"
         sodipodi:nodetypes="cccc"
         inkscape:connector-curvature="0"
         id="path6086-3-9"
         d="m 99.757997,185.61541 c 3.207443,4.54855 12.882833,1.7815 10.055023,-3.07965 -4.47974,-6.55603 -5.42336,-11.99854 -4.15774,-13.79613 0.65532,-0.97367 2.24809,-2.58329 4.25223,-2.83483"
         style="display:inline;opacity:1;fill:none;stroke:#306998;stroke-width:2;stroke-linecap:round;stroke-linejoin:round;stroke-miterlimit:4;stroke-dasharray:none;stroke-opacity:1" />
      <path
         inkscape:export-ydpi="507.71423"
         inkscape:export-xdpi="507.71423"
         sodipodi:nodetypes="cc"
         inkscape:connector-curvature="0"
         id="path6092-6-2"
         d="m 105.78418,168.33269 c 0.09,-1.478 0.46318,-3.14072 1.24591,-4.55574"
         style="display:inline;opacity:1;fill:none;stroke:#306998;stroke-width:2;stroke-linecap:round;stroke-linejoin:round;stroke-miterlimit:4;stroke-dasharray:none;stroke-opacity:1" />
      <path
         inkscape:export-ydpi="507.71423"
         inkscape:export-xdpi="507.71423"
         sodipodi:nodetypes="cccc"
         inkscape:connector-curvature="0"
         id="path6427-02"
         d="m 106.28808,163.11343 1.69372,0.96599 c 0.0741,-0.11743 0.10975,-1.1776 -1.7e-4,-1.7715 -0.63877,0.12143 -1.24683,0.38001 -1.69355,0.80551 z"
         style="display:inline;opacity:1;fill:#306896;fill-opacity:1;stroke:none;stroke-width:0.26458332px;stroke-linecap:butt;stroke-linejoin:miter;stroke-opacity:1" />
      <path
         inkscape:export-ydpi="507.71423"
         inkscape:export-xdpi="507.71423"
         inkscape:transform-center-y="0.10116926"
         inkscape:transform-center-x="-0.28485725"
         sodipodi:nodetypes="cccc"
         inkscape:connector-curvature="0"
         id="path6427-0-3"
         d="m 110.06371,164.92755 -0.20189,1.91764 c 0.50928,0.17013 1.62562,-0.70397 1.62562,-0.70397 -0.36521,-0.53795 -0.81736,-1.07641 -1.42373,-1.21367 z"
         style="display:inline;opacity:1;fill:#306896;fill-opacity:1;stroke:none;stroke-width:0.26458332px;stroke-linecap:butt;stroke-linejoin:miter;stroke-opacity:1" />
    </g>
  </g>
</svg>
